<svg xmlns="http://www.w3.org/2000/svg" width="112.093" height="144.286" viewBox="0 0 112.093 144.286"><defs><style>.a{fill:#013447;}.a,.b,.c,.d,.f{fill-rule:evenodd;}.b{fill:#ffca6c;}.c{fill:#0085ff;}.d{fill:#007bd6;}.e,.f{fill:#fff;}</style></defs><g transform="translate(-135.997 -50.274)"><path class="a" d="M236.723,121.774a5.764,5.764,0,0,1-1.1,2.293,6.821,6.821,0,0,1-2.878,2.155c-.473,3.489-1.894,6.882-4.737,9.015l4.953,13.193-4.593,2.748.606,1.964a6.786,6.786,0,0,1,.12,3.538,5.4,5.4,0,0,1,5.642,7.676,5.4,5.4,0,0,1-.5,8.841q.289.622.581,1.242a5.73,5.73,0,0,1,2.7,1.126,7.89,7.89,0,0,1,2.531,4.513l8.035,10.363-8.246,1.266-7.407,2.852h-.225c-8.267.025-16.512-.347-24.756-.941-7.84-.565-15.661-1.325-23.488-2.036-7.577-.687-15.157-1.32-22.758-1.683-7.95-.379-15.9-.457-23.849-.1l-1.363.062.09-1.362c.527-8.01,1.168-16.155,3.263-23.933a61.264,61.264,0,0,1,12.722-23.928c8.75-10.474,22.363-19.784,35.9-22.795L171.378,72.368a16.047,16.047,0,0,1,1.692-14.187,15.174,15.174,0,0,1,5.767-5.264l2.232-1.146a12.977,12.977,0,0,1,18.275,7.115L206.3,77.42a28.509,28.509,0,0,1,16.688-.149c4.86,1.341,9.93,3.988,12.581,8.45l1.911,3.217,2.912,2.244.043.04c1.908,1.788,3.43,4.222,3.191,6.934-.318,3.607-3.425,5.71-6.544,6.83l-1.059.379.092,4c2.574,1.789,5.421,4.494,4.866,7.854a6.008,6.008,0,0,1-3.721,4.378,4.013,4.013,0,0,1-.54.179" transform="translate(0 0)"/><path class="b" d="M358.307,291.092l3.278,8.732-8.016,4.8-5.226-1.192-3.1-6.842,7.918,5.436,5.426-3.246Z" transform="translate(-133.417 -153.549)"/><path class="c" d="M329.124,146.083l7.522-3.5s14.052-2.225,21.14,1.813,1.45,8.4,1.45,8.4c5.89-2.113,5.56-5.849,2.339-8.866-4.479-4.2-11.174-4.978-17.526-4.913a60.262,60.262,0,0,1,6.353-1.086c4.434-.447,5.791-.143,5.791-.143-5.14-8.648-23.03-10.19-26.883-5.888,0,0,9.339,3.157,10.318,7.271-.942.05-1.862.106-2.748.158Z" transform="translate(-123.141 -50.569)"/><path class="d" d="M307.928,166.782l-2.5,3.527-8.754,2.784,2.156-3.068Z" transform="translate(-102.452 -74.288)"/><path class="d" d="M413.927,172.43c1.548,2.983-1.707,5.5-1.707,5.5,5.89-2.113,5.56-5.849,2.339-8.866l-.062-.057a10.1,10.1,0,0,1-.57,3.419" transform="translate(-176.124 -75.709)"/><path class="d" d="M358.461,129.841c3.422,1.448,9.991,4.966,12.453,8.1a16.722,16.722,0,0,1,3.986.012c-2.958-4.977-10.14-7.6-16.438-8.11" transform="translate(-141.847 -50.733)"/><path class="b" d="M299.142,239.279l7.011,8.732,1.495-2.8s-1.6-2.918-2.746-5.1a46.335,46.335,0,0,1-3.559-4.418Z" transform="translate(-104.024 -118.226)"/><path class="e" d="M320.751,217.018l1.223-14.97a38.914,38.914,0,0,0-14.267-1.213,31.493,31.493,0,0,1-7.726,1.368c3.673,4.566,11.669,13.445,19.178,14.667a10.936,10.936,0,0,0,1.592.147m3.137-14.448-1.163,14.241c5.492-1.34,5.23-8.727,5.211-9.138a.973.973,0,0,1,.876-1.033c.947-.083,2.182-.145,2.809-.975.087-.116-.029-.279-.616-.609A37.507,37.507,0,0,0,323.889,202.57Zm-19.374-5.427a12.651,12.651,0,0,0,1.111-3.977l-9.372,3.012C297.507,201.445,302.213,201.811,304.515,197.143Zm3.145-4.631a15.458,15.458,0,0,1-1.4,5.494,9.83,9.83,0,0,1-.867,1.443c.082-.021,1.95-.53,1.95-.535a40.61,40.61,0,0,1,15.14,1.251l2.889-6.032a51.424,51.424,0,0,0-17.541-1.677Zm-12.385,1.933,9.014-2.9a7.464,7.464,0,0,1-2.242-2.087,8.14,8.14,0,0,1-1.313-5.729.976.976,0,1,1,1.939.215,8.155,8.155,0,0,0-.053,1.018,5.9,5.9,0,0,0,1.022,3.379,5.73,5.73,0,0,0,2.68,2.04,6.711,6.711,0,0,0,.809.25,1.83,1.83,0,0,1,.444-.112c.637-.06,14.2-1.263,23.8,3.994,11.348,6.216,4.667,8.906,4.648,8.914a.974.974,0,0,1-.75-1.8c.008,0,2.929-1.152-4.831-5.4a25.2,25.2,0,0,0-3.215-1.464l-2.836,5.921a38.958,38.958,0,0,1,7.569,2.673c2.1,1.18,2.147,2.246,1.213,3.482a5.093,5.093,0,0,1-3.293,1.655c-.092,2.966-1.179,11.907-11.029,10.3-7.978-1.3-24.595-15.605-26.051-26.7a13.953,13.953,0,0,1,.835-7.39.974.974,0,0,1,1.783.786,12.043,12.043,0,0,0-.687,6.354A17.791,17.791,0,0,0,295.274,194.445Z" transform="translate(-99.883 -84.542)"/><path class="b" d="M343.623,182.179c-1.1-2.242-4.309-2.173-6.359-1.473-1.535.524-2.555.983-2.555.983s.919-2.009,1.565-2.361c1.7-.924,6.433-1.23,7.682.251a1.98,1.98,0,0,1-.333,2.6M330.868,178.2s8.038-1.692,13.13-.127,6.086,3.084,5.969,3.794-2.132.969-2.132.969l-.84-1.148.028,4.848-5.771-.788,2.085-.967-1.392-2.117s-3.46-.68-4.53-.313-1.937,1.15-2.642,1.174l-1.41.049a1.975,1.975,0,0,0,1.064.81,3.206,3.206,0,0,0,.935.1l-.007-.02a2.549,2.549,0,0,1,1.663-.789c.513-.018.937.16.945.4s-.4.444-.916.461a1.591,1.591,0,0,1-.683-.111c0,.165.1.623,1.064.616a1.946,1.946,0,0,0,1.633-1.016,1.5,1.5,0,0,1,.629.385c.613.667-2.255,1.978-3.681.986-1.051,0-3.725,0-4.512.03l-1.928.067a4.883,4.883,0,0,1-1.539-.935,1.5,1.5,0,0,1-.355-.741A11.721,11.721,0,0,1,330.868,178.2Z" transform="translate(-122.216 -81.062)"/><path class="b" d="M384.769,199.135l1.109-.843a6.077,6.077,0,0,1,3.1.449c1.638.875,1.624,1.9,1.023,3.115a3.405,3.405,0,0,0-1.421-2.209c-1.04-.57-2.621-.449-3.813-.513" transform="translate(-158.621 -94.379)"/><path class="b" d="M335.916,238.741a3.642,3.642,0,0,0,2.541-1.583l3.559.939-.08,2.594-1.953-.159-.915,2,2.848-.953.115,4.292c.028,1.063-5.214.766-6.906-.652l-5.208-4.365,1.364-3.059c.844-1.891,4.692-1.3,5.92-1.06a7.5,7.5,0,0,1-1.286,2.005" transform="translate(-123.647 -118.712)"/><path class="c" d="M147.33,309.893s-.274-23.854,14.779-41.871,34.235-21.656,34.235-21.656,11.559,9.666,14.937,16.645a54.376,54.376,0,0,1,4.409,12.885l-4.652-5.614,6.924,18.738-19.085,11.227-17.913-25.891,2.071,12.943a58.574,58.574,0,0,1-7.223-6.167,82.257,82.257,0,0,0,5.148,9.634l-18.491,18.006Z" transform="translate(-7.226 -125.031)"/><path class="d" d="M177.55,273.2a55.151,55.151,0,0,1,3.828-5.176c15.052-18.017,34.235-21.656,34.235-21.656s.6.5,1.56,1.354c-16.951,6.417-25.081,11.743-39.624,25.477" transform="translate(-26.495 -125.031)"/><path class="f" d="M366.854,339.755a2.481,2.481,0,0,1,3.167,1.484h0a2.481,2.481,0,0,1-1.484,3.167l-6.108,2.209a3.959,3.959,0,0,0-.177-3.361l-5.75.158s-1.1.207-1.782-1.406l6.338-.165Zm-2.848-5.7a3.969,3.969,0,0,1-1.658,4.466,5.124,5.124,0,0,1-5.819-.753,5.3,5.3,0,0,1-1.282-1.571,3.5,3.5,0,0,0,.611,3.045,4.086,4.086,0,0,1-1.75.325,8.036,8.036,0,0,1-1.948-5.174l2.39-1.737C358.307,333.442,359.9,334.081,364.006,334.057Zm4.382,12.271a2.48,2.48,0,0,1,3.167,1.484h0a2.48,2.48,0,0,1-1.484,3.167l-6.107,2.209a3.96,3.96,0,0,0-.1-3.217l-6.424.177s-1.1.207-1.782-1.406l6.337-.165Zm-5.772,10.022-3.494.527s-1.067.339-1.94-1.179l6.135-.916a3.517,3.517,0,0,1-.544,1.371Q362.693,356.257,362.615,356.351Zm-.9,7.278c2.675-3.2,4.217-5.82,8.891-6.258,3.113-.292,3.865.983,4.6,4.134l2.73,3.606Z" transform="translate(-137.829 -180.053)"/><path class="b" d="M382.606,246.186l-1.064,5.942,2.585-5.162Z" transform="translate(-156.564 -124.916)"/><path class="b" d="M296.512,382.7l3.2-1.915,7.195,5.456-4.534-7.083,11.135-6.615,6.183,16.491-13.72-.071Z" transform="translate(-102.347 -205.488)"/><path class="b" d="M246.993,61.949l2.232-1.146a9.511,9.511,0,0,1,13.512,5.276l7.43,19.786-.007,0c-3.845,2.2-7.459,10.075-9.26,14.54-.236-4.185,1.662-11.618,5.722-14.646l-6.171-18.826a7.074,7.074,0,0,0-10.11-3.963l-2.232,1.147A10.136,10.136,0,0,0,243.458,76.3L255.2,107.523l.694,8.841L241.173,77.157a12.574,12.574,0,0,1,5.821-15.208" transform="translate(-66.594 -5.99)"/><path class="d" d="M225.549,319.4l.382,3.561,3.5,5.85-4.96-3.942a9.486,9.486,0,0,1,1.081-5.469" transform="translate(-56.372 -171.597)"/></g></svg>