<svg xmlns="http://www.w3.org/2000/svg" width="57.513" height="40.112" viewBox="0 0 57.513 40.112"><defs><style>.a{fill:#008cff;}.b{fill:none;}.c{fill:#fff;}.d{fill:#ff0753;}.e{fill:#0d289b;}</style></defs><g transform="translate(-3404.293 -195.84)"><g transform="translate(3404.293 195.84)"><g transform="translate(1.596 25.491)"><path class="a" d="M3437.694,354.513a2.8,2.8,0,0,1-1.892-.78l-6.648-6.372a2.808,2.808,0,0,1,3.886-4.054l6.647,6.372a2.806,2.806,0,0,1-1.993,4.833Z" transform="translate(-3428.289 -342.527)"/></g><g transform="translate(8.84 0)"><path class="b" d="M3484.159,285.878a11.445,11.445,0,0,1,.3-18.508,11.742,11.742,0,0,0-1.342-.88l-.086,0,.043-.021a11.424,11.424,0,0,0-12.84,1.254l-2.6-14.15a2.808,2.808,0,0,0-5.523,1.02h0l4.01,21.812a11.455,11.455,0,0,0,16.589,10.358h.008A11.374,11.374,0,0,0,3484.159,285.878Z" transform="translate(-3460.461 -249.674)"/><path class="c" d="M3472.834,283.463a11.543,11.543,0,0,0,5.359-1.215l.021,0-.013-.007a11.361,11.361,0,0,0,1.449-.872,11.445,11.445,0,0,1,.3-18.508,11.72,11.72,0,0,0-1.342-.879h-.086l.043-.023a11.4,11.4,0,0,0-5.292-1.411,11.545,11.545,0,0,0-2.007.14,11.391,11.391,0,0,0-5.541,2.525l-2.6-14.149a2.809,2.809,0,0,0-2.712-2.3,2.848,2.848,0,0,0-.558.046,2.81,2.81,0,0,0-2.254,3.269l4.01,21.811a11.383,11.383,0,0,0,11.227,11.571m-.028,1.6a13.058,13.058,0,0,1-12.648-11.016,12.872,12.872,0,0,1-.148-2.01l-3.983-21.664a4.412,4.412,0,0,1,3.535-5.129,4.491,4.491,0,0,1,.876-.072,4.419,4.419,0,0,1,4.254,3.607l2.161,11.75a12.967,12.967,0,0,1,4.163-1.414,13.01,13.01,0,0,1,8,1.282h.016l.327.182,2.583,1.42-.292.152,1.006.76-1.792,1.261a9.845,9.845,0,0,0-3.5,11.655,9.9,9.9,0,0,0,3.247,4.272l1.749,1.32-1.792,1.261a12.955,12.955,0,0,1-1.654.994l-.534-1.066,0,.011.531,1.058a13.005,13.005,0,0,1-3.82,1.225A13.151,13.151,0,0,1,3472.806,285.06Z" transform="translate(-3455.953 -245.169)"/></g><g transform="translate(0 23.893)"><path class="b" d="M3437.688,354.507a2.8,2.8,0,0,1-1.892-.78l-6.649-6.372a2.808,2.808,0,0,1,3.887-4.054l6.647,6.372a2.806,2.806,0,0,1-1.993,4.834Z" transform="translate(-3426.688 -340.924)"/><path class="c" d="M3433.191,350.006a2.807,2.807,0,0,0,1.994-4.834l-6.647-6.372a2.808,2.808,0,0,0-3.886,4.054l6.649,6.373a2.8,2.8,0,0,0,1.891.78m-.028,1.6a4.392,4.392,0,0,1-2.968-1.223l-6.649-6.373a4.405,4.405,0,0,1,6.1-6.362l6.649,6.374a4.4,4.4,0,0,1-3.128,7.583Z" transform="translate(-3422.192 -336.423)"/></g><g transform="translate(28.41 0.708)"><path class="c" d="M3549.272,288.729h0a12.34,12.34,0,0,1-5.546-1.431l-2.519-.36,1.108-.522q-.108-.078-.214-.158l-.873-.659.894-.631a10.649,10.649,0,0,0,.277-17.218l-.875-.659.9-.631q.17-.12.341-.233l-.087-.052,1.295-.652a12.221,12.221,0,0,1,12.816,1.121l2.846-12.892a3.607,3.607,0,0,1,6.562-1.163,3.581,3.581,0,0,1,.481,2.719l-5.127,23.221q0,.036-.009.071c-.007.059-.016.132-.031.212a12.26,12.26,0,0,1-12.234,9.915Z" transform="translate(-3538.456 -250.125)"/><path class="c" d="M3555.446,249.472a2.815,2.815,0,0,0-2.794,2.2l-3.13,14.175a11.38,11.38,0,0,0-5.615-2.874,11.417,11.417,0,0,0-7.339,1.01l.042.025-.085,0a11.446,11.446,0,0,0-1.405.853,11.447,11.447,0,0,1-.3,18.508,11.341,11.341,0,0,0,1.385.9l-.008,0,.02,0a11.458,11.458,0,0,0,16.743-7.866c.019-.095.024-.189.04-.282l5.132-23.244a2.8,2.8,0,0,0-2.69-3.413m.028-1.6h0a4.4,4.4,0,0,1,4.221,5.355l-5.12,23.188,0,.027c-.008.068-.019.16-.04.269a13.061,13.061,0,0,1-18.814,9.1l-5.021-.718,2.32-1.093-.9-.681,1.788-1.262a9.857,9.857,0,0,0,4.063-9.6,9.8,9.8,0,0,0-3.806-6.328l-1.75-1.318,1.123-.792-.273-.164,2.59-1.3.141-.07.164-.084h.01a13.02,13.02,0,0,1,12.333.668l2.593-11.744A4.422,4.422,0,0,1,3555.475,247.875Z" transform="translate(-3530.698 -247.874)"/></g><g transform="translate(10.439 1.6)"><path class="a" d="M3484.158,285.884a11.445,11.445,0,0,1,.3-18.508,11.7,11.7,0,0,0-1.342-.88l-.086,0,.043-.021a11.424,11.424,0,0,0-12.84,1.254l-2.6-14.15a2.808,2.808,0,0,0-5.523,1.02h0l4.01,21.812a11.455,11.455,0,0,0,16.589,10.358h.008A11.348,11.348,0,0,0,3484.158,285.884Z" transform="translate(-3462.06 -251.279)"/><path class="d" d="M3567.642,254.048a2.814,2.814,0,0,0-3.348,2.137l-3.127,14.174a11.425,11.425,0,0,0-12.954-1.863l.043.025-.085,0a11.5,11.5,0,0,0-1.4.852,11.447,11.447,0,0,1-.3,18.508,11.313,11.313,0,0,0,1.385.9h.021a11.464,11.464,0,0,0,16.743-7.867c.018-.1.024-.188.04-.282l5.132-23.245a2.808,2.808,0,0,0-2.148-3.34Z" transform="translate(-3524.369 -253.275)"/><g transform="translate(17.527 16.095)"><path class="e" d="M3538.285,320.108a6.088,6.088,0,0,0-4.719,11.154A11.414,11.414,0,0,0,3538.285,320.108Z" transform="translate(-3529 -312.752)"/></g></g></g></g></svg>