<svg xmlns="http://www.w3.org/2000/svg" xmlns:xlink="http://www.w3.org/1999/xlink" width="272.258" height="200.984" viewBox="0 0 272.258 200.984"><defs><style>.a,.b{fill:none;}.a{clip-rule:evenodd;}.c{clip-path:url(#a);}.d{clip-path:url(#b);}.e{fill:#ff0006;}.f{clip-path:url(#c);}.g{fill:#004a80;}.h{clip-path:url(#e);}.i{fill:#ffc000;}.j{clip-path:url(#g);}.k{fill:#f4aa00;}.l{clip-path:url(#i);}.m{clip-path:url(#k);}.n{fill:#008aff;}.o{clip-path:url(#m);}.p{clip-path:url(#o);}.q{clip-path:url(#q);}.r{clip-path:url(#s);}.s{fill:#ff004e;}.t{clip-path:url(#u);}.u{fill:#ff1f85;}.v{clip-path:url(#w);}.w{fill:#ff0052;}.x{clip-path:url(#y);}.y{fill:#de002b;}.z{clip-path:url(#aa);}.aa{fill:#fff;}.ab{clip-path:url(#ac);}.ac{clip-path:url(#ae);}.ad{clip-path:url(#ag);}.ae{clip-path:url(#ai);}.af{clip-path:url(#ak);}.ag{clip-path:url(#am);}.ah{clip-path:url(#an);}.ai{clip-path:url(#ao);}.aj{clip-path:url(#ap);}.ak{clip-path:url(#ar);}.al{clip-path:url(#at);}.am{clip-path:url(#av);}.an{clip-path:url(#ax);}.ao{clip-path:url(#ay);}.ap{clip-path:url(#az);}.aq{clip-path:url(#ba);}.ar{clip-path:url(#bc);}.as{clip-path:url(#be);}.at{clip-path:url(#bf);}.au{clip-path:url(#bg);}.av{clip-path:url(#bh);}.aw{clip-path:url(#bj);}.ax{fill:#00b8ff;}.ay{clip-path:url(#bl);}.az{fill:#0085e6;}.ba{clip-path:url(#bn);}.bb{clip-path:url(#bp);}.bc{clip-path:url(#br);}.bd{clip-path:url(#bt);}.be{clip-path:url(#bv);}.bf{clip-path:url(#bx);}.bg{clip-path:url(#bz);}.bh{fill:#ffdf00;}.bi{clip-path:url(#cb);}.bj{clip-path:url(#cd);}.bk{clip-path:url(#cf);}.bl{clip-path:url(#ch);}</style><clipPath id="a"><path class="a" d="M172.053-138.435s2.564-2.944,5.8-1.359a51.831,51.831,0,0,1,7.816,5.393s2.719,2.425-.216,6.031-5.893-2.495-5.893-2.495l-5.926-4.879Z" transform="translate(-172.053 140.263)"/></clipPath><clipPath id="b"><path class="b" d="M-605,3556.3H1377.646V-884H-605Z" transform="translate(605 884)"/></clipPath><clipPath id="c"><path class="a" d="M123.567-54.332l49.869,40.823a2.21,2.21,0,0,1,.673.96l.487,1.358a2.445,2.445,0,0,1-.241,2.105l-.255.412a2.432,2.432,0,0,1-2.028,1.165L170.78-7.5a2.166,2.166,0,0,1-1.4-.5L119.831-49.134a2.229,2.229,0,0,1-.756-1.289l-.486-2.5c-.059-1.095-1.382-.644-3.92-.352l5.561-.64c.271.081,3.117-.6,3.336-.42" transform="translate(-114.67 54.362)"/></clipPath><clipPath id="e"><path class="a" d="M164.8-20.895l-37.964,8.984,1.621,4.124a2.621,2.621,0,0,0,2.836,1.63l39.131-9.009L204.8-30.245l-5.991-4.411-31.605,13.13Z" transform="translate(-126.835 34.656)"/></clipPath><clipPath id="g"><path class="a" d="M122.239-83.2,115.29-88.59a2.471,2.471,0,0,0-2.167-.424l-1.049.286a2.612,2.612,0,0,0-1.28.81,2.619,2.619,0,0,0-.518,2.553l.251.745A2.463,2.463,0,0,0,111.3-83.5L206.089-6.162a2.424,2.424,0,0,0,.946.474l1.389.351a2.56,2.56,0,0,0,2.467-.731l.577-.6A2.636,2.636,0,0,0,212.13-9.1l-.136-.565a2.459,2.459,0,0,0-.844-1.341Z" transform="translate(-110.141 89.103)"/></clipPath><clipPath id="i"><path class="a" d="M114.791-103.263l-4.336,17.889a22.009,22.009,0,0,0-.555,6.928l6.591,43.6,6.437-.57-6.435-41.729a28.84,28.84,0,0,1,.839-9.482l3.943-15.181Z" transform="translate(-109.833 103.263)"/></clipPath><clipPath id="k"><path class="a" d="M110.724-109.225s-3.8,7.747,5.284,11.775,11.136-3.9,11.136-3.9Z" transform="translate(-109.935 109.225)"/></clipPath><clipPath id="m"><path class="a" d="M121.106-53.984,138.5-2.415a2.618,2.618,0,0,1,.081,1.374A2.62,2.62,0,0,1,136.838.911l-.354.116a2.622,2.622,0,0,1-2.2-.263l-.5-.311a2.622,2.622,0,0,1-1.106-1.4L114.669-53.414Z" transform="translate(-114.669 53.984)"/></clipPath><clipPath id="o"><path class="a" d="M132.666-95.925l.08,25.123s-.525,6.616-8.417,7.427S112.3-62.224,112.3-62.224l4.208,24.645,38.523-3.834s5.886-.825,4.714-7.6-6.417-17.975,1.359-32.85-19.977-11.28-19.977-11.28Z" transform="translate(-112.297 95.925)"/></clipPath><clipPath id="q"><path class="a" d="M123.6-101.444s75.455,61.86,81.529,66.862,12.627,10.858,15.885,7.954-8.781-22.464-8.781-22.464L184.827-73.828,156.779-89.78Z" transform="translate(-123.603 101.444)"/></clipPath><clipPath id="s"><path class="a" d="M100.351-113.349s48.089-58.7,106.783-18.688c0,0,28.064,20.1,27.681,52.105,0,0-.668,18.392-13.368,41.74l-1.755,2.829L99.349-108.038Z" transform="translate(-99.349 145.999)"/></clipPath><clipPath id="u"><path class="a" d="M234.816-82.828c.383-32-27.681-52.105-27.681-52.105q-2.679-1.828-5.33-3.382.839.543,1.676,1.114s28.065,20.1,27.683,52.106c0,0-.669,18.39-13.369,41.739l-1.755,2.829L99.36-110.988l-.011.054L219.693-38.258l1.755-2.829c12.7-23.348,13.368-41.74,13.368-41.74" transform="translate(-99.349 138.314)"/></clipPath><clipPath id="w"><path class="a" d="M125.322-94.408l1-5.31s36.09-44.055,83.9-29.818c-1.895-1.641-3.094-2.5-3.094-2.5-58.695-40.011-106.783,18.689-106.783,18.689l-1,5.31L219.692-35.363l.928-1.5Z" transform="translate(-99.35 146)"/></clipPath><clipPath id="y"><path class="a" d="M128.046-113.931s-8.373-6.157-12.222-2.013-3.7,8.136,4.727,12.8,4.373,15.328,15.944,22.327,14.365,9.042,14.365,9.042,8.826,4.027,15.374-5.251-1.775-15.228-9.99-20.222-28.2-16.679-28.2-16.679" transform="translate(-113.397 117.378)"/></clipPath><clipPath id="aa"><path class="a" d="M149.5-106.323a2.73,2.73,0,0,1-3.757.88,2.728,2.728,0,0,1-.877-3.756,2.726,2.726,0,0,1,3.755-.88,2.727,2.727,0,0,1,.88,3.756" transform="translate(-144.453 110.489)"/></clipPath><clipPath id="ac"><path class="a" d="M156.114-102.217a2.728,2.728,0,0,1-3.756.88,2.73,2.73,0,0,1-.878-3.757,2.727,2.727,0,0,1,3.756-.878,2.727,2.727,0,0,1,.878,3.756" transform="translate(-151.069 106.383)"/></clipPath><clipPath id="ae"><path class="a" d="M108.938-119.788s-9.569-3.7-11.1-1.961c-3.175,3.616-6.287,7.964,2.012,11.546S165.4-82.7,211.592-40.615c0,0,5.182,5,10.355,1.713s1.212-8.446-4.717-13.683-70.69-55.283-108.292-67.2" transform="translate(-94.535 122.214)"/></clipPath><clipPath id="ag"><path class="a" d="M36.35-125.391s-2.24-3.2-5.63-1.962a51.718,51.718,0,0,0-8.34,4.542s-2.96,2.124-.421,6.018,6.124-1.86,6.124-1.86l6.405-4.23Z" transform="translate(-20.93 127.636)"/></clipPath><clipPath id="ai"><path class="a" d="M89.056-36.52,35.217-1.192a2.195,2.195,0,0,0-.768.884L33.821.99a2.449,2.449,0,0,0,.019,2.119l.211.435a2.429,2.429,0,0,0,1.892,1.373l1.286.143a2.161,2.161,0,0,0,1.44-.346L92.224-30.958a2.223,2.223,0,0,0,.885-1.2l.746-2.43c.172-1.082,1.44-.5,3.932.062l-5.459-1.223c-.28.052-3.036-.924-3.273-.77" transform="translate(-33.589 36.537)"/></clipPath><clipPath id="ak"><path class="a" d="M8.672-21.906H82.445V8.221H8.672Z" transform="translate(-8.672 21.906)"/></clipPath><clipPath id="am"><rect class="b" width="75.726" height="33.044" transform="translate(0 0)"/></clipPath><clipPath id="an"><path class="a" d="M48.581-6.214,82.445,2.88,80.4,6.811a2.618,2.618,0,0,1-2.99,1.323L42.385-1.108,10.232-16.237A2.714,2.714,0,0,1,9.9-20.964l.76-.5a2.712,2.712,0,0,1,2.584-.212L46.254-7.1Z" transform="translate(-8.672 21.906)"/></clipPath><clipPath id="ao"><path class="b" d="M8,8.29H83.726V-22H8Z" transform="translate(-8 22)"/></clipPath><clipPath id="ap"><path class="a" d="M106.389-65.405l7.518-4.652a2.481,2.481,0,0,1,2.207-.2l1.017.392a2.621,2.621,0,0,1,1.192.938,2.621,2.621,0,0,1,.242,2.6l-.33.715a2.492,2.492,0,0,1-.9,1.04L13.25,3.526,10.124,1.863a2.676,2.676,0,0,1-.259-4.583Z" transform="translate(-8.691 70.426)"/></clipPath><clipPath id="ar"><path class="a" d="M91.189-82.46l2.082,15.622a22.118,22.118,0,0,1-.179,6.949L81.952-17.223l-6.34-1.243L86.4-59.286a28.806,28.806,0,0,0,.164-9.519L84.737-80.983l2.237-.227a7.871,7.871,0,0,0,1.823-.408Z" transform="translate(-75.611 82.46)"/></clipPath><clipPath id="at"><path class="a" d="M94.9-89.987s2.966,8.1-6.495,11.155-10.662-5.047-10.662-5.047Z" transform="translate(-77.747 89.987)"/></clipPath><clipPath id="av"><path class="a" d="M57.361-35.981H88.828V13.525H57.361Z" transform="translate(-57.361 35.981)"/></clipPath><clipPath id="ax"><rect class="b" width="33.044" height="50.943" transform="translate(0 0)"/></clipPath><clipPath id="ay"><path class="a" d="M82.488-35.981l-24.913,46.1A2.346,2.346,0,0,0,58.9,13.293a3.774,3.774,0,0,0,4.721-1.948l25.21-46.083Z" transform="translate(-57.361 35.981)"/></clipPath><clipPath id="az"><path class="b" d="M57,13.566H90.044V-36H57Z" transform="translate(-57 36)"/></clipPath><clipPath id="ba"><path class="a" d="M81.378-83.628,78.42-51.6s-.175,6.634,7.586,8.271S98.3-40.847,98.3-40.847L92.016-16.783,53.17-24.714s-5.766-1.44-3.89-8.05,8.273-17.2,2.1-32.811,18.74-13.065,18.74-13.065Z" transform="translate(-48.905 83.628)"/></clipPath><clipPath id="bc"><path class="a" d="M0-83.626H105.145v65.17H0Z" transform="translate(0 83.626)"/></clipPath><clipPath id="be"><rect class="b" width="108.77" height="68.842" transform="translate(0 0)"/></clipPath><clipPath id="bf"><path class="a" d="M105.145-83.626S23.6-30.045,17.035-25.711,3.339-16.241.4-19.471,11.5-40.888,11.5-40.888L41.357-62.6,70.926-75.516Z" transform="translate(0 83.626)"/></clipPath><clipPath id="bg"><path class="b" d="M0-17.912H106.017V-84H0Z" transform="translate(0 84)"/></clipPath><clipPath id="bh"><path class="a" d="M139.529-91.028S97.883-154.458,35.3-120.843c0,0-30.023,17.041-33.008,48.905,0,0-1.269,18.359,8.9,42.915l1.45,3L139.967-85.64Z" transform="translate(-2.245 130.668)"/></clipPath><clipPath id="bj"><path class="a" d="M2.3-73.86C5.281-105.724,35.3-122.765,35.3-122.765q2.856-1.534,5.655-2.8c-.593.3-1.187.613-1.783.934,0,0-30.025,17.041-33.007,48.905,0,0-1.271,18.359,8.9,42.915l1.448,3,123.442-57.8.006.056L12.65-27.948l-1.45-3C1.026-55.5,2.3-73.86,2.3-73.86" transform="translate(-2.245 125.568)"/></clipPath><clipPath id="bl"><path class="a" d="M110.067-74.819l-.436-5.388s-31.26-47.606-80.3-38.476c2.058-1.432,3.339-2.162,3.339-2.162,62.579-33.615,104.225,29.817,104.225,29.817l.439,5.386L10.011-26.026,9.244-27.61Z" transform="translate(-9.244 130.668)"/></clipPath><clipPath id="bn"><path class="a" d="M52.7-91.118a2.728,2.728,0,0,0,3.643,1.269,2.726,2.726,0,0,0,1.268-3.643,2.726,2.726,0,0,0-3.642-1.269A2.729,2.729,0,0,0,52.7-91.118" transform="translate(-52.424 95.034)"/></clipPath><clipPath id="bp"><path class="a" d="M45.686-87.731a2.728,2.728,0,0,0,3.643,1.269A2.727,2.727,0,0,0,50.6-90.1a2.727,2.727,0,0,0-3.642-1.269,2.728,2.728,0,0,0-1.269,3.643" transform="translate(-45.413 91.646)"/></clipPath><clipPath id="br"><path class="a" d="M89.275-96.328s8.973-5.242,12.365-.716,3.581,11.939-6.046,12.228c-25.558.768-5.962,14.784-18.2,20.527s-15.237,7.48-15.237,7.48-9.2,3.077-14.736-6.839S50.785-78.6,59.48-82.706,89.275-96.328,89.275-96.328" transform="translate(-45.703 98.885)"/></clipPath><clipPath id="bt"><path class="a" d="M107.715-137.739a2.7,2.7,0,0,1-2.7-2.7,2.7,2.7,0,0,1,2.7-2.7,2.7,2.7,0,0,1,2.7,2.7,2.7,2.7,0,0,1-2.7,2.7" transform="translate(-105.015 143.137)"/></clipPath><clipPath id="bv"><path class="a" d="M113.5-41.966a4.578,4.578,0,0,1-4.578,4.578,4.579,4.579,0,0,1-4.578-4.578,4.579,4.579,0,0,1,4.578-4.578,4.578,4.578,0,0,1,4.578,4.578" transform="translate(-104.346 46.544)"/></clipPath><clipPath id="bx"><path class="a" d="M197.26-129.094a3.219,3.219,0,0,1-3.219,3.219,3.219,3.219,0,0,1-3.219-3.219,3.219,3.219,0,0,1,3.219-3.219,3.219,3.219,0,0,1,3.219,3.219" transform="translate(-190.822 132.313)"/></clipPath><clipPath id="bz"><path class="a" d="M57.577-140.1a3.94,3.94,0,0,1-3.941,3.941,3.942,3.942,0,0,1-3.942-3.941,3.942,3.942,0,0,1,3.942-3.941,3.94,3.94,0,0,1,3.941,3.941" transform="translate(-49.695 144.039)"/></clipPath><clipPath id="cb"><path class="a" d="M88.665-15.422a3.285,3.285,0,0,1-3.287,3.285,3.284,3.284,0,0,1-3.284-3.285,3.286,3.286,0,0,1,3.284-3.287,3.286,3.286,0,0,1,3.287,3.287" transform="translate(-82.095 18.708)"/></clipPath><clipPath id="cd"><path class="a" d="M13.257-29.086a3.15,3.15,0,0,1-3.15,3.15,3.148,3.148,0,0,1-3.149-3.15,3.149,3.149,0,0,1,3.149-3.15,3.15,3.15,0,0,1,3.15,3.15" transform="translate(-6.958 32.237)"/></clipPath><clipPath id="cf"><path class="a" d="M96.477-129.616a4.375,4.375,0,0,1-4.376,4.376,4.375,4.375,0,0,1-4.374-4.376,4.375,4.375,0,0,1,4.374-4.376,4.375,4.375,0,0,1,4.376,4.376" transform="translate(-87.727 133.992)"/></clipPath><clipPath id="ch"><path class="a" d="M130.508-100.172s9.9-2.672,11.241-.783c2.778,3.931,5.414,8.582-3.216,11.272S70.46-69.23,20.1-32.235c0,0-5.681,4.421-10.479.613s-.317-8.525,6.13-13.11,76.113-47.541,114.759-55.44" transform="translate(-7.608 101.631)"/></clipPath></defs><g transform="translate(0 146)"><g class="c" transform="translate(236.889 -138.101)"><g class="d" transform="translate(-1069.876 -1024.005)"><path class="e" d="M167.053-145.263H195.59v26.8H167.053Z" transform="translate(895.939 1162.384)"/></g></g><g class="f" transform="translate(157.881 -19.829)"><g class="d" transform="translate(-990.868 -1142.277)"><path class="g" d="M109.67-59.362H183.5V1.266H109.67Z" transform="translate(874.314 1194.755)"/></g></g><g class="h" transform="translate(174.631 7.302)"><g class="d" transform="translate(-1007.618 -1169.409)"><path class="i" d="M121.835-39.656h91.736v42.3H121.835Z" transform="translate(878.899 1202.181)"/></g></g><g class="j" transform="translate(151.646 -67.662)"><g class="d" transform="translate(-984.633 -1094.444)"><path class="k" d="M105.141-94.1H220.97V3.506H105.141Z" transform="translate(872.608 1181.663)"/></g></g><g class="l" transform="translate(151.222 -87.158)"><g class="d" transform="translate(-984.209 -1074.948)"><path class="g" d="M104.833-108.263H131.7v82.188H104.833Z" transform="translate(872.492 1176.327)"/></g></g><g class="m" transform="translate(151.363 -95.367)"><g class="d" transform="translate(-984.35 -1066.739)"><path class="n" d="M104.935-114.225h30.977V-87.54H104.935Z" transform="translate(872.53 1174.08)"/></g></g><g class="o" transform="translate(157.881 -19.31)"><g class="d" transform="translate(-990.868 -1142.797)"><path class="k" d="M109.669-58.984h37.74V9.926h-37.74Z" transform="translate(874.314 1194.897)"/></g></g><g class="p" transform="translate(154.615 -77.055)"><g class="d" transform="translate(-987.602 -1085.052)"><path class="i" d="M107.3-100.925h63.947V-28.81H107.3Z" transform="translate(873.421 1179.092)"/></g></g><g class="q" transform="translate(170.181 -84.654)"><g class="d" transform="translate(-1003.168 -1077.452)"><path class="g" d="M118.6-106.444H230.344v89.357H118.6Z" transform="translate(877.681 1177.012)"/></g></g><g class="r" transform="translate(136.787 -145.999)"><g class="d" transform="translate(-969.774 -1016.107)"><path class="s" d="M94.349-151H243.588V-26.594H94.349Z" transform="translate(868.541 1160.222)"/></g></g><g class="t" transform="translate(136.787 -135.418)"><g class="d" transform="translate(-969.774 -1026.688)"><path class="u" d="M94.349-143.314H243.588V-29.49H94.349Z" transform="translate(868.541 1163.118)"/></g></g><g class="v" transform="translate(136.788 -146)"><g class="d" transform="translate(-969.775 -1016.107)"><path class="w" d="M94.35-151H229.388V-26.594H94.35Z" transform="translate(868.541 1160.222)"/></g></g><g class="x" transform="translate(156.129 -106.592)"><g class="d" transform="translate(-989.115 -1055.514)"><path class="y" d="M108.4-122.378h68.962v60.237H108.4Z" transform="translate(873.835 1171.008)"/></g></g><g class="z" transform="translate(198.889 -97.107)"><g class="d" transform="translate(-1031.876 -1064.999)"><path class="aa" d="M139.453-115.489h19.224v19.224H139.453Z" transform="translate(885.538 1173.604)"/></g></g><g class="ab" transform="translate(207.997 -91.454)"><g class="d" transform="translate(-1040.984 -1070.652)"><path class="aa" d="M146.069-111.383h19.224v19.225H146.069Z" transform="translate(888.031 1175.151)"/></g></g><g class="ac" transform="translate(130.16 -113.25)"><g class="d" transform="translate(-963.146 -1048.856)"><path class="n" d="M89.535-127.214H233.11v98.2H89.535Z" transform="translate(866.727 1169.186)"/></g></g><g class="ad" transform="translate(28.818 -120.716)"><g class="d" transform="translate(-861.805 -1041.39)"><path class="e" d="M15.93-132.637H45.118v25.965H15.93Z" transform="translate(838.99 1167.142)"/></g></g><g class="ae" transform="translate(46.247 4.713)"><g class="d" transform="translate(-879.234 -1166.819)"><path class="g" d="M28.589-41.537h77.966V13.842H28.589Z" transform="translate(843.76 1201.472)"/></g></g><g class="af" transform="translate(11.941 24.857)"><g class="d" transform="translate(-844.927 -1186.963)"><g class="ag" transform="translate(844.002 1185.457)"><g class="ah" transform="translate(0.926 1.506)"><g class="ai" transform="translate(-0.926 -0.129)"><path class="i" d="M3.672-26.906H91.214v43.9H3.672Z" transform="translate(-9.631 20.151)"/></g></g></g></g></g><g class="aj" transform="translate(11.966 -41.946)"><g class="d" transform="translate(-844.953 -1120.16)"><path class="g" d="M3.691-75.426H127.57v87.72H3.691Z" transform="translate(834.378 1188.701)"/></g></g><g class="ak" transform="translate(104.105 -58.516)"><g class="d" transform="translate(-937.091 -1103.59)"><path class="g" d="M70.611-87.46h31.62V-8.454H70.611Z" transform="translate(859.596 1184.166)"/></g></g><g class="al" transform="translate(107.044 -68.879)"><g class="d" transform="translate(-940.031 -1093.227)"><path class="g" d="M72.747-94.987h31.366v25.61H72.747Z" transform="translate(860.4 1181.33)"/></g></g><g class="am" transform="translate(78.977 5.478)"><g class="d" transform="translate(-911.964 -1167.584)"><g class="an" transform="translate(911.467 1167.558)"><g class="ao" transform="translate(0.498 0.025)"><g class="ap" transform="translate(-0.498 -0.025)"><path class="s" d="M52.361-40.981H97.6V22.293H52.361Z" transform="translate(-58.748 34.123)"/></g></g></g></g></g><g class="aq" transform="translate(67.334 -60.124)"><g class="d" transform="translate(-900.321 -1101.982)"><path class="g" d="M43.905-88.628h63.162V-8.014H43.905Z" transform="translate(849.532 1183.726)"/></g></g><g class="ar" transform="translate(0 -60.121)"><g class="d" transform="translate(-832.987 -1101.985)"><g class="as" transform="translate(830.233 1101.47)"><g class="at" transform="translate(2.753 0.515)"><g class="au" transform="translate(0 -0.515)"><path class="i" d="M-5-88.626H113.913V-9.688H-5Z" transform="translate(-1.884 82.257)"/></g></g></g></g></g><g class="av" transform="translate(3.091 -124.89)"><g class="d" transform="translate(-836.078 -1037.216)"><path class="n" d="M-2.755-135.668h151.49v118.41H-2.755Z" transform="translate(831.949 1166)"/></g></g><g class="aw" transform="translate(3.091 -117.869)"><g class="d" transform="translate(-836.078 -1044.238)"><path class="ax" d="M-2.755-130.568h151.49V-19.179H-2.755Z" transform="translate(831.949 1167.922)"/></g></g><g class="ay" transform="translate(12.728 -124.891)"><g class="d" transform="translate(-845.715 -1037.216)"><path class="az" d="M4.244-135.668H146.1v118.41H4.244Z" transform="translate(834.586 1166)"/></g></g><g class="ba" transform="translate(72.179 -75.828)"><g class="d" transform="translate(-905.166 -1086.279)"><path class="aa" d="M47.424-100.034H66.649v19.225H47.424Z" transform="translate(850.858 1179.428)"/></g></g><g class="bb" transform="translate(62.527 -71.163)"><g class="d" transform="translate(-895.514 -1090.943)"><path class="aa" d="M40.413-96.646H59.638v19.225H40.413Z" transform="translate(848.216 1180.705)"/></g></g><g class="bc" transform="translate(62.926 -81.131)"><g class="d" transform="translate(-895.912 -1080.976)"><path class="e" d="M40.7-103.885h71.823v56.3H40.7Z" transform="translate(848.325 1177.977)"/></g></g><g class="bd" transform="translate(144.589 -142.059)"><g class="d" transform="translate(-977.576 -1020.048)"><path class="n" d="M100.015-148.137h19.167v19.167H100.015Z" transform="translate(870.676 1161.301)"/></g></g><g class="be" transform="translate(143.667 -9.065)"><g class="d" transform="translate(-976.654 -1153.041)"><path class="n" d="M99.346-51.544H122.27v22.924H99.346Z" transform="translate(870.424 1197.701)"/></g></g><g class="bf" transform="translate(262.73 -127.155)"><g class="d" transform="translate(-1095.717 -1034.952)"><path class="n" d="M185.822-137.313h20.206v20.206H185.822Z" transform="translate(903.011 1165.38)"/></g></g><g class="bg" transform="translate(68.421 -143.3)"><g class="d" transform="translate(-901.408 -1018.806)"><path class="bh" d="M44.695-149.039H66.345v21.649H44.695Z" transform="translate(849.829 1160.961)"/></g></g><g class="bi" transform="translate(113.031 29.26)"><g class="d" transform="translate(-946.018 -1191.366)"><path class="bh" d="M77.095-23.708H97.433v20.34H77.095Z" transform="translate(862.039 1208.19)"/></g></g><g class="bj" transform="translate(9.58 10.634)"><g class="d" transform="translate(-842.567 -1172.74)"><path class="bh" d="M1.958-37.237H22.025v20.069H1.958Z" transform="translate(833.725 1203.092)"/></g></g><g class="bk" transform="translate(120.785 -129.467)"><g class="d" transform="translate(-953.772 -1032.639)"><path class="bh" d="M82.727-138.992h22.518v22.52H82.727Z" transform="translate(864.161 1164.747)"/></g></g><g class="bl" transform="translate(10.474 -84.911)"><g class="d" transform="translate(-843.461 -1077.195)"><path class="s" d="M2.608-106.631H153.19v85.324H2.608Z" transform="translate(833.969 1176.942)"/></g></g></g></svg>