<svg xmlns="http://www.w3.org/2000/svg" xmlns:xlink="http://www.w3.org/1999/xlink" width="21.533" height="21.534" viewBox="0 0 21.533 21.534"><defs><style>.a,.b{fill:none;}.a{clip-rule:evenodd;}.c{clip-path:url(#a);}.d{clip-path:url(#b);}.e{clip-path:url(#c);}.f{clip-path:url(#d);}.g{clip-path:url(#e);}.h{fill:#038bff;}.i{clip-path:url(#f);}.j{fill:#fff;}</style><clipPath id="a"><path class="a" d="M1018-100.6h21.533v21.534H1018Z"/></clipPath><clipPath id="b"><path class="b" d="M-160,187H1280V-2919H-160Z"/></clipPath><clipPath id="c"><rect class="b" width="22" height="22" transform="translate(1018 -101)"/></clipPath><clipPath id="d"><path class="a" d="M1028.767-100.6A10.767,10.767,0,0,0,1018-89.83a10.766,10.766,0,0,0,10.767,10.767,10.765,10.765,0,0,0,10.766-10.767A10.766,10.766,0,0,0,1028.767-100.6Z"/></clipPath><clipPath id="e"><path class="b" d="M1018-79h22v-22h-22Z"/></clipPath><clipPath id="f"><path class="a" d="M1031.164-93.2h-1.132c-.4,0-.482.163-.482.576v1h1.614l-.155,1.754h-1.459v5.238h-2.092v-5.215h-1.088v-1.777h1.088v-1.4c0-1.313.7-2,2.258-2h1.448Z"/></clipPath></defs><g class="c" transform="translate(-1018 100.597)"><g class="d"><g class="e"><g class="f"><g class="g"><path class="h" d="M1013-105.6h31.533v31.534H1013Z"/></g></g><g class="i"><g class="g"><path class="j" d="M1021.37-100.023h14.794v20.387H1021.37Z"/></g></g></g></g></g></svg>