<svg xmlns="http://www.w3.org/2000/svg" width="200.248" height="186.705" viewBox="0 0 200.248 186.705"><defs><style>.a,.g{fill:#fff;}.a,.b,.c,.d,.e,.f{fill-rule:evenodd;}.b{fill:#a1a6b5;}.c{fill:#ec1c24;}.d,.j{fill:#231f20;opacity:0.17;}.e,.h{fill:#013447;}.f{fill:#0085ff;}.i{fill:#ffb100;}</style></defs><g transform="translate(-38.396 -94.286)"><g transform="translate(38.396 124.185)"><path class="a" d="M57.275,249.773c4.966,1.123,10.6,2.43,12.426,2.858l.213,1.483-.528.3-.535.1L65.2,253.9l37.123,8.857-.126-.408a5.731,5.731,0,0,1-.284-1.724,3.26,3.26,0,0,1,.188-1.128l.156-.419.442-.088.406-.081.031-.238.732.026c.695.023,1.465.037,2.2.045,1.288.011,2.358.009,2.871.006l.52,0-.007-.106-.784,0-4.606-.014-.915,0,.119-.908.271-2.063.281-.512c2.112-1.759,5,.159,5,.163l.3.2.055.356.153.97-.084-1.233-.056-.839.841-.018a1.2,1.2,0,0,0,.24-.031l-7.577-.874-.248-.072L63.167,235.43l-.762-.356.143-.275-1.2.911-.534.407-.5-.446a3.053,3.053,0,0,1-1.126-2.6l.23-.443c1.5-1.479,3.153-3.062,4.527-4.257,1.559-1.357,2.88-2.218,3.544-1.984l.082.037c16.822,8.26,44.855,22.064,44.938,22.1l.333.164.092.355a41.169,41.169,0,0,1,.928,4.912c.229,1.725.382,3.453.481,5.1l.028.459-.386.257c-1.808,1.212-4.11-.12-4.116-.124l-.123-.069.021.13a3.1,3.1,0,0,0,1.823.656,5.314,5.314,0,0,0,1.793-.256l1.007-.322.042,1.057c.024.593.042,1.178.056,1.751.015.634.023,1.173.026,1.629l0,.437-.363.242c-.037.025-.075.047-.113.071l.48-.1-.007,1c-.016,2.322-.1,3.833-.1,3.835l-.045.928-.914-.176-9.757-1.867-.459-.266-.359-.426.565-.748-.2-.5c.853-.344.949-2.364.949-2.371l.05-.924.91.177,4.447.873-.135-.729-.65-.076-5.75-.673.483.115.644.154-.026.661a4.263,4.263,0,0,1-.547,1.764,8.891,8.891,0,0,1-.8,1.223l-.3.393-.492-.094c-2.367-.457-4.972-1.011-7.719-1.629-2.87-.647-5.908-1.368-9-2.125-6.615,9.232-12.857,16.718-12.875,16.74l-.306.229c-13.012,5.449-27.3-2.335-27.337-2.357l-.35-.187-.066-.386c-1.234-7.164,3.462-26.938,3.474-27l.162-.325a9.173,9.173,0,0,1,2.543-1.643l.483-.055c1.058.2,3.462.734,6.227,1.36Zm24.973,31.043c.647-.166,1.326-.363,2.034-.6l.679-.227-.149-.7c-.172-.82-.315-1.671-.43-2.529-.121-.9-.208-1.8-.264-2.672l-1.527-.3-3.108,6.3-.708,1.433,1.572-.286c.621-.112,1.257-.247,1.9-.411Zm1.415,12.736c-.633-.038-1.2-.079-1.673-.117l-.564.171-3.508,2.756.491,1.438a13.352,13.352,0,0,0,4.939-.94,8.61,8.61,0,0,0,1.457-.886,11.347,11.347,0,0,0,1.114-.948l1.349-1.306-1.876-.079c-.581-.023-1.166-.055-1.728-.089Zm-3.053-4.421-.554-.076-.266.488a3.046,3.046,0,0,0,.379,3.46l.522.26a79.951,79.951,0,0,0,14.77.023,67.143,67.143,0,0,0,9.946-1.649l-.05-1.579q-1.84-.328-3.253-.6c-1.044-.2-2.1-.411-3.158-.631l-.262-.013a75.4,75.4,0,0,1-18.073.318Zm-14.365-5.852a23.938,23.938,0,0,1-3.443.524l-.658.054-.08.653a13.829,13.829,0,0,0,.246,4.839,8.885,8.885,0,0,0,3.9,5.59,15.254,15.254,0,0,0,6.154,2.307,11.413,11.413,0,0,0,3.594-.055l-.122-1.6a13.056,13.056,0,0,1-4.935-1.285,5,5,0,0,0,2.444-3.392,7.735,7.735,0,0,0-1.133-5.473,26.29,26.29,0,0,0,9.116-.892,7.541,7.541,0,0,0,3.886-2.437l.242-.322-.114-.384-.038-.134-.244-.833-.814.3a28.8,28.8,0,0,1-7.015,1.6,30.871,30.871,0,0,1-7.312-.113l-.4.051a22.777,22.777,0,0,1-3.273,1ZM88.109,251.9c-.866,1.278-1.966,2.9-3.238,4.749l-.656.958,1.127.278,2.8.687.551.136.314-.466c.8-1.2,1.6-2.413,2.374-3.631l0,0c.785-1.233,1.543-2.463,2.266-3.677l.458-.77-.815-.373-2.245-1.027-.625-.287-.381.569c-.5.753-1.335,1.987-1.924,2.855Zm-34.853,3c-.77-.215-1.442-.4-2-.563-.5,2.069-1.533,6.61-2.288,11.541a71.6,71.6,0,0,0-.888,9.218c.395.207,1.068.539,1.972.916a94.088,94.088,0,0,1,2.846-12.727c.991-3.4,1.953-6.183,2.531-7.776l-2.169-.608Zm2.95,12.719a59.388,59.388,0,0,0-2.018,9.779,27.316,27.316,0,0,0,7.993.891,22.4,22.4,0,0,0,7.7-1.69c.917-1.116,6.851-8.372,11.069-14.292-3.652-.921-7.376-1.892-10.94-2.836-3.725-.988-7.055-1.889-9.876-2.663A87.292,87.292,0,0,0,56.206,267.62Z" transform="translate(-41.968 -205.756)"/><path class="b" d="M66.25,236.362a5.372,5.372,0,0,1,.372-2.066l5.9-4.636.031-1.709,1.516,2.268,41.079,20.272a13.1,13.1,0,0,0,2.783-.412,20.225,20.225,0,0,1,1.557,4.014,29.532,29.532,0,0,1,.367,5.611l-.9,1.1.811-.151.386,3.019-.5,1.892a17.38,17.38,0,0,1-2.667-1.025,5.511,5.511,0,0,1-1.605-1.939l-.276,1.918-.929-.2.223-1.47c-1.467-.062-5.047-.492-5.047-.492l-.082-.829-1.4-1.21c-.037-.631,1.7-.855,2.726-.931l-.122-.014.27-2.246a2,2,0,0,1,1.609-1.174c1.207-.135-1.973-.845-1.973-.845l-2.818-.365-39.6-18.532a6.48,6.48,0,0,1,.362-1.459c-.913.974-1.736,2.554-2.071,1.615ZM95.827,249.83a5.392,5.392,0,0,1-.421,2.931c-.693,1.719-4.239,6.422-4.239,6.422s2.559,1.208,3.521.7a11.8,11.8,0,0,0,3.469-3.778c.8-1.43,1.488-3.148,1.767-3.738s-1.172-2.359-4.1-2.537ZM91.14,295.669a14.009,14.009,0,0,0-4.715,1.093,24.874,24.874,0,0,1-3.363,1.537,5.047,5.047,0,0,1,.86-2.231,5.49,5.49,0,0,1,3.192-2.006c1.378-.229,4.163.7,4.026,1.608Zm-2.487-21.191a5.91,5.91,0,0,1-.437,3.407c-.8,1.478-2.544,4.557-2.544,4.557l-6.42.777-4.024.249s1.1,5.109-4.941,6.942c0,0,2.506,6.065,7.906,5.59s6.624-2.242,6.624-2.242l.87.02,1.2-1.093s14.792.936,22.272-1.878A25.745,25.745,0,0,0,105.13,289c-1.711-.516-8.527-1.588-9.457-2.514s-4.226-1.8-4.1-3.108-1.08-4.124-1.1-5.109.1-6.2-1.823-3.79Zm-32.437-24.7a23.722,23.722,0,0,0,12.236,5.282c7.545.942,8.177-.132,8.177-.132L74.978,253.4s-16.826-5.077-18.763-3.62ZM88.8,263.312l-22.094-5.556a29.42,29.42,0,0,1,3.47,2.109l3.9.72a16.033,16.033,0,0,1,.323,5.4c-.4,2.433-3.259,5.576-4.878,7.684s-7.883,4.266-9.44,4.654a4.68,4.68,0,0,0-2.485,1.823c-.347-7.4,4.513-20.842,5.434-23.31l-3.109-.782-3.791-1.075-.289-1.773s46.543,11.959,49.035,12.318a6.508,6.508,0,0,0,4.325-.925c.89.933-1.03,3.915-1.03,3.915s-7-2.079-12.579-3.487c-.692-.175-1.763-.445-3.109-.782a3.533,3.533,0,0,1-.374,3.366c-1.025,1.639-4.141,4.536-6.716,6.815s-4.957,4.15-5.842,5.23-2.913,2.993-8.5,3.977S46.017,279.288,55.6,281.2s20.417-1.465,20.417-1.465c3.281-3.384,11.2-14.243,12.779-16.419Zm20.127,5.776c.913.9,9.061,3.177,9.92,3.189s1.235-1.781,1.513-2.2-.817-3.776-.817-3.776-2.78-.288-3.288-.212a8.534,8.534,0,0,1-2.278-.683l-2.589-.357a3.751,3.751,0,0,1-.325,2.685,2.146,2.146,0,0,1-2.136,1.355Zm6.063-9.151.26-1.805-.057-.216-.368.432-.15,1.249-2.047-.042,2.361.382Zm1.54-5.767a4.309,4.309,0,0,0-1.62-1.893c-2.269-1.591-13.587-6.677-14.184-6.875s-13.064-6.689-15.358-7.86-13.8-5.136-13.8-5.136-.722.434-1.517.974c.121.5.617,1.362,2.343,2.549,2.854,1.964,35.222,16.641,35.222,16.641l1.906-.684-.343.542a3.189,3.189,0,0,0,2.27,1.335C112.676,253.949,115.284,254.1,116.53,254.169Z" transform="translate(-47.41 -206.745)"/><path class="c" d="M139.155,211c-8-4.164-15.436-7.994-20.467-10.535l-.839-.422.539-.763c.069-.1.175-.245.327-.452,7.314-10.041,18.2-15.075,29.619-15.924a51.04,51.04,0,0,1,32.721,9.131c.127.091.308.221.543.393,9.645,7.024,14.712,16.067,16.114,25.68,1.553,10.661-1.412,22-7.637,32.05l-1.41-.778a46.388,46.388,0,0,0,4.588-15.639,41.706,41.706,0,0,0-4.425-23.853A39.073,39.073,0,0,0,171.4,192.947a43.88,43.88,0,0,0-10.7-3.625,26.051,26.051,0,0,1,6.11,5.4,20.28,20.28,0,0,1,4.353,9.146,16.021,16.021,0,0,1-1.058,9.405,16.964,16.964,0,0,1-4.562,6.043,52.011,52.011,0,0,1,.257,12.958,72.353,72.353,0,0,1-1.715,10.1l-1.588-.2a112.41,112.41,0,0,0-2.067-19.969c-6.674-3.559-14.194-7.512-21.269-11.2Zm-1.789,27.149,8.028,1.772-1.965,7.782s8.9,6.846,14.524,8.105,13.577,5.17,12.655,6.134S158,263.605,152.7,262.968s-18.936-5.681-18.936-5.681-3.786-6.143-3.888-7.9,1.235-9.528,1.235-9.528,2.014.019,6.253-1.712Zm2.513-14.209a29.53,29.53,0,0,0,1.281,9.47l5.827,1.819s.859-3.793,1.026-4.8-1.409-3.932-1.409-3.932Z" transform="translate(-87.472 -178.839)"/><path class="a" d="M117.147,200.838a37.184,37.184,0,0,1,6.939-7.821,1.745,1.745,0,0,0,.379.89c.939,1.128,3.235.764,5.129-.812s2.667-3.768,1.729-4.9a1.736,1.736,0,0,0-.2-.2c8.361-4.789,20.641-8.1,37.282-3.675,0,0-20.771-6.244-30.24-4.42a44.1,44.1,0,0,0-19.656,9.608c-3.166,2.7-6.1,8.034-6.1,8.034a37.754,37.754,0,0,0,4.744,3.29Zm19.626-13.251a1.234,1.234,0,1,1-1.642.588A1.232,1.232,0,0,1,136.772,187.587Z" transform="translate(-84.108 -176.863)"/><path class="d" d="M118.862,207.43s16.859,7.609,27.417,3.7,6.99-15.549,6.99-15.549,4.934-1.4,16.735,5.238,17.561,29.461,15.751,32.163-12.219,19.839-13.579,20.086-5.6,3.577-6.921,2.6c-.7-.518-1.5-3.226-2.106-5.663L163.1,250l0-.177c-.514-2.1-.871-3.941-.871-3.941l-2.142-15.418L136.28,217.616s-18.182-8.947-17.418-10.186Zm22.713,25.014a11.307,11.307,0,0,1,4.054,6.892,6.474,6.474,0,0,1-.376,3l2.346.733s.859-3.793,1.026-4.8-1.409-3.932-1.409-3.932l-5.607-2.13a1.6,1.6,0,0,0-.034.244Zm.752,14.5a14.024,14.024,0,0,1-5.689,3.851,29.847,29.847,0,0,1-4.309-1.414c-.575-.428-1.206,5.185-1.231,6.885s2.763,8.3,3.721,8.913a8.916,8.916,0,0,0,1.065.492c1.98.71,5.633,1.987,9.246,3.1.156.031.292.055.4.068,1.22.148,10.743,1.464,16.871,2.127,2.07-.087,4.06-.238,5.632-.433a9.4,9.4,0,0,0-.07-3.4,43.7,43.7,0,0,0-9.4-3.487c-5.626-1.259-14.524-8.105-14.524-8.105l1.965-7.782Z" transform="translate(-88.083 -186.677)"/><path class="e" d="M99.933,234.108l.361.427,9.755,1.866s.081-1.5.1-3.8a4.668,4.668,0,0,1-3.717-.558l-4.994-.981s-.114,2.536-1.45,3.073l-.052-.024Zm-5.2-.077L87.562,237.6a25.664,25.664,0,0,0,2.814,10.779,150.68,150.68,0,0,0,24.425,6.706c-8.512-.414-19.152-1.756-29.161-5.355a24.853,24.853,0,0,1-1.959-14.128l6.775-2.6,4.276,1.023Zm2.624-6.411a13.23,13.23,0,0,0-1.371-7.346l-3.426-1.568c.9,1.415,2.624,4.762,1.362,8.068l3.435.846ZM81,248.361c-.811,1.09-3.835,3.676-13.967,2.9,0,0,2.674,3.047,1.959,6.2a4.277,4.277,0,0,1-3.628,3.408,14.764,14.764,0,0,0,6.871,2.255,12.866,12.866,0,0,1-9.163-2.143c-4.192-2.651-4.014-7.732-3.778-9.647a24.3,24.3,0,0,0,6.948-1.582,31.215,31.215,0,0,0,14.719-1.527c.012.044.025.088.039.132Zm-2.647,12.608c.874.071,2.048.15,3.433.207a9.1,9.1,0,0,1-2.352,1.686,12.543,12.543,0,0,1-4.59.862l3.509-2.755Zm6.905.291a26.439,26.439,0,0,1-6.02,4.228c-2.849,1.162-6.515-.151-6.515-.151A19.366,19.366,0,0,1,61.558,263.3c-5.051-2.472-5.787-9.547-5.891-11.927-4.825-.277-10.639-1.886-17.27-6.047a126.6,126.6,0,0,1,3.769-29.46l4.872-2.436,18.476,4.42c1.182-4.933,2.361-8.693,2.858-10.208l-9.868-4.514c-.758.77-1.506,1.448-1.506,1.448s-4.484-2.846-3.849-6.043a127.638,127.638,0,0,1,10.443-8.268c.224.091.65.288,1.244.573,15.354-21.864,47.908-23.775,69.446-7.949,27.808,20.434,24.747,52.934-.007,76.682-4.439,1.821-17.392.555-29.315-1.417-5.719,2.59-13.679,3.139-19.7,3.105Zm16.382-3.677c-2.236-.4-4.4-.819-6.428-1.237a76.41,76.41,0,0,1-18.285.315,2.224,2.224,0,0,0,.267,2.53,74.119,74.119,0,0,0,24.446-1.608Zm-21.9-16.714-3.109,6.3a27.054,27.054,0,0,0,3.821-.983,38.12,38.12,0,0,1-.712-5.314Zm34.481-5.045a114.875,114.875,0,0,0-2.156-20.511c-14.185-7.571-32.48-17.065-42.092-21.921,14.353-20.3,43.409-20.261,62.077-6.664,19.975,14.545,19.9,37.873,8.264,56.653,13.274-26.891-1.158-58.506-33.214-61.917,15.007,6.617,19.164,22.46,8.493,31.172,1.541,9.021-.219,18.463-1.372,23.188ZM65.942,220.146c-3.006-.7-15.795-3.671-18.62-4.211a8.48,8.48,0,0,0-2.249,1.418s-4.671,19.674-3.464,26.671c0,0,13.991,7.626,26.645,2.326,0,0,6.448-7.732,13.158-17.137,6.207,1.528,12.252,2.92,17.208,3.876a5.239,5.239,0,0,0,1.179-2.527L55.656,220.03s-1.634-.423-2.048-1.578l11.8,2,.531-.3Zm21.19-3.92c-.721,1.074-2.7,4.009-5.169,7.609l2.8.687c1.6-2.381,3.163-4.827,4.615-7.27l-2.244-1.026Zm-24.508,10.1s-3.862,7.75-7.345,12.129c0,0-2.892,1.245-3.6,1.448l-.226,2.429a23.451,23.451,0,0,0,5.264-2.2c1.778-2.962,6.729-11.482,5.909-13.806Zm16.087,2.212c-8.2-2.056-16.446-4.272-22.61-5.966-4.91,11.036-6.081,19.079-6.358,22.154a25.588,25.588,0,0,0,17.063-.738s7.306-8.856,11.9-15.45ZM47.14,243.873c1.16-9.392,4.8-19.568,5.773-22.178-2.625-.728-4.65-1.3-5.819-1.631-.552,2.215-3.355,13.857-3.4,22.24a24.779,24.779,0,0,0,3.449,1.569Zm63-12.91c-1.319.876-3.3.1-3.3.1l-.456-2.471c-.957.594-1.039.939-1.039.939l-5.956-.7a3.638,3.638,0,0,1-.109-2.331,29.774,29.774,0,0,1,6.081-.227l.089.573a4.6,4.6,0,0,0,4.609.755c.05,1.189.074,2.322.082,3.354Zm-5.051-6.4-.291-1.855s-2.4-1.594-4.044-.222l-.271,2.063,4.606.014Zm4.882,1.276c-1.389.93-3.274-.161-3.274-.161l-.232-3.412a1.5,1.5,0,0,0,1.551-1.5l-8.814-1.015-39.27-18.323c.019-.035.038-.071.052-.1a5.63,5.63,0,0,0,.487-1.955L57.29,201.8a2.212,2.212,0,0,1-.867-1.866,49.913,49.913,0,0,1,7.233-6.056c16.443,8.074,44.935,22.1,44.935,22.1a53.358,53.358,0,0,1,1.385,9.855ZM61.306,198.854c-.121.095,38.855,19.046,38.855,19.046l-.268.566c2.581.065,7.123.369,7.123.369l-.253-1.579-41.579-20.1a3.611,3.611,0,0,1-1.407-1.74,3.547,3.547,0,0,0-.187,1.372Z" transform="translate(-38.396 -172.487)"/><path class="a" d="M122.2,272.191s-1.8,5.069-1.605,6.742a8.957,8.957,0,0,0,3.587-3.832C125.084,272.765,122.283,272.428,122.2,272.191Z" transform="translate(-89.157 -234.071)"/></g><g transform="translate(123.031 124.185)"><path class="a" d="M429.614,249.773c-4.966,1.123-10.6,2.43-12.425,2.858l-.213,1.483.529.3.535.1,3.651-.618-37.123,8.857.126-.408a5.718,5.718,0,0,0,.283-1.724,3.253,3.253,0,0,0-.188-1.128l-.156-.419-.442-.088-.405-.081-.031-.238-.732.026c-.695.023-1.465.037-2.2.045-1.289.011-2.358.009-2.871.006l-.52,0,.007-.106.784,0,4.606-.014.915,0-.119-.908-.271-2.063-.281-.512c-2.112-1.759-5,.159-5,.163l-.3.2-.055.356-.153.97.084-1.233.056-.839-.841-.018a1.2,1.2,0,0,1-.24-.031l7.577-.874.248-.072,39.272-18.324.762-.356-.143-.275,1.2.911.534.407.5-.446a3.051,3.051,0,0,0,1.125-2.6l-.229-.443c-1.5-1.479-3.153-3.062-4.527-4.257-1.559-1.357-2.881-2.218-3.544-1.984l-.082.037c-16.822,8.26-44.855,22.064-44.938,22.1l-.333.164-.093.355a41.25,41.25,0,0,0-.928,4.912c-.229,1.725-.382,3.453-.481,5.1l-.028.459.386.257c1.808,1.212,4.11-.12,4.116-.124l.124-.069-.021.13a3.1,3.1,0,0,1-1.823.656,5.314,5.314,0,0,1-1.793-.256l-1.007-.322-.042,1.057c-.024.593-.041,1.178-.056,1.751-.015.634-.022,1.173-.026,1.629l0,.437.363.242c.037.025.075.047.113.071l-.48-.1.006,1c.016,2.322.1,3.833.1,3.835l.046.928.914-.176,9.757-1.867.46-.266L384,267.9l-.565-.748.2-.5c-.853-.344-.949-2.364-.949-2.371l-.05-.924-.91.177-4.447.873.135-.729.65-.076,5.75-.673-.483.115-.644.154.026.661a4.263,4.263,0,0,0,.547,1.764,8.9,8.9,0,0,0,.8,1.223l.3.393.492-.094c2.367-.457,4.972-1.011,7.719-1.629,2.87-.647,5.908-1.368,9-2.125,6.616,9.232,12.857,16.718,12.875,16.74l.306.229c13.012,5.449,27.3-2.335,27.337-2.357l.35-.187.066-.386c1.234-7.164-3.462-26.938-3.474-27l-.162-.325a9.179,9.179,0,0,0-2.543-1.643l-.483-.055c-1.058.2-3.462.734-6.227,1.36Zm-24.973,31.043c-.647-.166-1.326-.363-2.034-.6l-.679-.227.149-.7c.172-.82.315-1.671.43-2.529.121-.9.208-1.8.263-2.672l1.528-.3,3.108,6.3.708,1.433-1.572-.286c-.621-.112-1.257-.247-1.9-.411Zm-1.415,12.736c.633-.038,1.2-.079,1.673-.117l.564.171,3.508,2.756-.491,1.438a13.352,13.352,0,0,1-4.939-.94,8.58,8.58,0,0,1-1.457-.886,11.3,11.3,0,0,1-1.114-.948l-1.35-1.306,1.876-.079c.582-.023,1.166-.055,1.729-.089Zm3.052-4.421.554-.076.266.488a3.047,3.047,0,0,1-.378,3.46l-.522.26a79.951,79.951,0,0,1-14.77.023,67.144,67.144,0,0,1-9.946-1.649l.05-1.579q1.84-.328,3.253-.6c1.045-.2,2.1-.411,3.158-.631l.262-.013a75.4,75.4,0,0,0,18.073.318Zm14.365-5.852a23.93,23.93,0,0,0,3.443.524l.658.054.08.653a13.822,13.822,0,0,1-.246,4.839,8.882,8.882,0,0,1-3.9,5.59,15.25,15.25,0,0,1-6.154,2.307,11.412,11.412,0,0,1-3.594-.055l.121-1.6a13.058,13.058,0,0,0,4.936-1.285,5,5,0,0,1-2.445-3.392,7.737,7.737,0,0,1,1.133-5.473,26.287,26.287,0,0,1-9.116-.892,7.544,7.544,0,0,1-3.886-2.437l-.241-.322.114-.384.038-.134.244-.833.814.3a28.8,28.8,0,0,0,7.015,1.6,30.874,30.874,0,0,0,7.313-.113l.4.051a22.775,22.775,0,0,0,3.273,1ZM398.78,251.9c.866,1.278,1.966,2.9,3.238,4.749l.656.958-1.127.278-2.8.687-.551.136-.314-.466c-.8-1.2-1.6-2.413-2.373-3.631l0,0c-.785-1.233-1.543-2.463-2.266-3.677l-.458-.77.815-.373,2.245-1.027.624-.287.381.569c.5.753,1.336,1.987,1.924,2.855Zm34.853,3c.771-.215,1.442-.4,2-.563.5,2.069,1.534,6.61,2.288,11.541a71.6,71.6,0,0,1,.888,9.218c-.395.207-1.068.539-1.972.916a93.97,93.97,0,0,0-2.846-12.727c-.99-3.4-1.953-6.183-2.53-7.776l2.168-.608Zm-2.95,12.719A59.394,59.394,0,0,1,432.7,277.4a27.316,27.316,0,0,1-7.993.891,22.408,22.408,0,0,1-7.7-1.69c-.917-1.116-6.851-8.372-11.069-14.292,3.652-.921,7.377-1.892,10.94-2.836,3.725-.988,7.056-1.889,9.877-2.663A87.3,87.3,0,0,1,430.683,267.62Z" transform="translate(-329.309 -205.756)"/><path class="b" d="M425.383,236.362a5.381,5.381,0,0,0-.372-2.066l-5.9-4.636-.031-1.709-1.516,2.268-41.079,20.272a13.1,13.1,0,0,1-2.783-.412,20.2,20.2,0,0,0-1.557,4.014,29.534,29.534,0,0,0-.367,5.611l.9,1.1-.811-.151-.386,3.019.5,1.892a17.367,17.367,0,0,0,2.667-1.025,5.509,5.509,0,0,0,1.606-1.939l.276,1.918.929-.2-.223-1.47c1.468-.062,5.048-.492,5.048-.492l.082-.829,1.4-1.21c.037-.631-1.7-.855-2.726-.931l.122-.014-.27-2.246a2,2,0,0,0-1.609-1.174c-1.207-.135,1.973-.845,1.973-.845l2.819-.365,39.6-18.532a6.469,6.469,0,0,0-.362-1.459c.914.974,1.736,2.554,2.071,1.615ZM395.806,249.83a5.394,5.394,0,0,0,.421,2.931c.693,1.719,4.239,6.422,4.239,6.422s-2.558,1.208-3.52.7a11.805,11.805,0,0,1-3.47-3.778c-.8-1.43-1.488-3.148-1.766-3.738s1.172-2.359,4.1-2.537Zm4.687,45.839a14.009,14.009,0,0,1,4.715,1.093,24.875,24.875,0,0,0,3.363,1.537,5.047,5.047,0,0,0-.86-2.231,5.49,5.49,0,0,0-3.193-2.006c-1.378-.229-4.163.7-4.025,1.608Zm2.487-21.191a5.91,5.91,0,0,0,.437,3.407c.8,1.478,2.544,4.557,2.544,4.557l6.42.777,4.024.249s-1.1,5.109,4.94,6.942c0,0-2.505,6.065-7.906,5.59s-6.624-2.242-6.624-2.242l-.87.02-1.2-1.093s-14.792.936-22.272-1.878A25.734,25.734,0,0,1,386.5,289c1.711-.516,8.527-1.588,9.457-2.514s4.226-1.8,4.1-3.108,1.08-4.124,1.1-5.109-.1-6.2,1.824-3.79Zm32.437-24.7a23.722,23.722,0,0,1-12.235,5.282c-7.545.942-8.177-.132-8.177-.132l1.649-1.529s16.826-5.077,18.763-3.62Zm-32.584,13.537,22.094-5.556a29.421,29.421,0,0,0-3.47,2.109l-3.9.72a16.032,16.032,0,0,0-.323,5.4c.4,2.433,3.259,5.576,4.878,7.684s7.883,4.266,9.44,4.654a4.678,4.678,0,0,1,2.484,1.823c.347-7.4-4.513-20.842-5.434-23.31l3.109-.782,3.791-1.075.289-1.773s-46.543,11.959-49.036,12.318a6.508,6.508,0,0,1-4.324-.925c-.89.933,1.03,3.915,1.03,3.915s7-2.079,12.579-3.487c.692-.175,1.763-.445,3.108-.782a3.535,3.535,0,0,0,.375,3.366c1.025,1.639,4.141,4.536,6.716,6.815s4.957,4.15,5.842,5.23,2.913,2.993,8.5,3.977,25.042-4.341,15.455-2.432-20.417-1.465-20.417-1.465c-3.281-3.384-11.2-14.243-12.779-16.419Zm-20.127,5.776c-.913.9-9.061,3.177-9.92,3.189s-1.235-1.781-1.513-2.2.817-3.776.817-3.776,2.78-.288,3.288-.212a8.538,8.538,0,0,0,2.278-.683l2.589-.357a3.751,3.751,0,0,0,.325,2.685,2.146,2.146,0,0,0,2.136,1.355Zm-6.063-9.151-.261-1.805.057-.216.367.432.151,1.249,2.047-.042-2.361.382Zm-1.54-5.767a4.306,4.306,0,0,1,1.62-1.893c2.268-1.591,13.587-6.677,14.184-6.875s13.064-6.689,15.358-7.86,13.8-5.136,13.8-5.136.722.434,1.517.974c-.121.5-.617,1.362-2.343,2.549-2.854,1.964-35.222,16.641-35.222,16.641l-1.906-.684.343.542a3.189,3.189,0,0,1-2.27,1.335C378.957,253.949,376.35,254.1,375.1,254.169Z" transform="translate(-328.611 -206.745)"/><path class="f" d="M331.709,211c8-4.164,15.436-7.994,20.466-10.535l.839-.422-.539-.763c-.069-.1-.175-.245-.327-.452-7.314-10.041-18.2-15.075-29.619-15.924a51.04,51.04,0,0,0-32.721,9.131c-.127.091-.308.221-.543.393-9.646,7.024-14.712,16.067-16.114,25.68-1.553,10.661,1.412,22,7.637,32.05l1.41-.778a46.388,46.388,0,0,1-4.589-15.639,41.712,41.712,0,0,1,4.425-23.853,39.076,39.076,0,0,1,17.432-16.937,43.88,43.88,0,0,1,10.7-3.625,26.053,26.053,0,0,0-6.111,5.4,20.288,20.288,0,0,0-4.353,9.146,16.024,16.024,0,0,0,1.059,9.405,16.955,16.955,0,0,0,4.562,6.043,51.993,51.993,0,0,0-.257,12.958,72.239,72.239,0,0,0,1.715,10.1l1.588-.2a112.338,112.338,0,0,1,2.067-19.969c6.674-3.559,14.194-7.512,21.269-11.2Zm1.789,27.149-8.028,1.772,1.965,7.782s-8.9,6.846-14.524,8.105-13.577,5.17-12.655,6.134,12.606,1.667,17.9,1.029,18.936-5.681,18.936-5.681,3.785-6.143,3.888-7.9-1.235-9.528-1.235-9.528-2.014.019-6.253-1.712Zm-2.513-14.209a29.543,29.543,0,0,1-1.281,9.47l-5.828,1.819s-.859-3.793-1.026-4.8,1.409-3.932,1.409-3.932Z" transform="translate(-267.781 -178.839)"/><path class="a" d="M392.926,200.838a37.184,37.184,0,0,0-6.939-7.821,1.745,1.745,0,0,1-.379.89c-.938,1.128-3.235.764-5.129-.812s-2.667-3.768-1.729-4.9a1.705,1.705,0,0,1,.2-.2c-8.361-4.789-20.641-8.1-37.282-3.675,0,0,20.771-6.244,30.24-4.42a44.1,44.1,0,0,1,19.656,9.608c3.166,2.7,6.105,8.034,6.105,8.034a37.784,37.784,0,0,1-4.744,3.29ZM373.3,187.587a1.234,1.234,0,1,0,1.642.588A1.232,1.232,0,0,0,373.3,187.587Z" transform="translate(-310.353 -176.863)"/><path class="d" d="M373.046,207.43s-16.858,7.609-27.417,3.7-6.99-15.549-6.99-15.549-4.934-1.4-16.735,5.238-17.561,29.461-15.751,32.163,12.219,19.839,13.579,20.086,5.6,3.577,6.921,2.6c.7-.518,1.5-3.226,2.106-5.663l.047-.006,0-.177c.514-2.1.871-3.941.871-3.941l2.142-15.418,23.811-12.848s18.182-8.947,17.418-10.186Zm-22.712,25.014a11.3,11.3,0,0,0-4.054,6.892,6.474,6.474,0,0,0,.376,3l-2.346.733s-.859-3.793-1.026-4.8,1.409-3.932,1.409-3.932l5.607-2.13a1.6,1.6,0,0,1,.034.244Zm-.752,14.5a14.023,14.023,0,0,0,5.689,3.851,29.846,29.846,0,0,0,4.309-1.414c.575-.428,1.206,5.185,1.231,6.885s-2.763,8.3-3.721,8.913a8.9,8.9,0,0,1-1.065.492c-1.98.71-5.633,1.987-9.246,3.1-.156.031-.292.055-.4.068-1.22.148-10.743,1.464-16.871,2.127-2.07-.087-4.06-.238-5.631-.433a9.4,9.4,0,0,1,.07-3.4,43.708,43.708,0,0,1,9.4-3.487c5.626-1.259,14.524-8.105,14.524-8.105l-1.965-7.782Z" transform="translate(-288.214 -186.677)"/><path class="e" d="M313.837,234.108l-.361.427L303.72,236.4s-.081-1.5-.1-3.8a4.668,4.668,0,0,0,3.717-.558l4.994-.981s.114,2.536,1.45,3.073l.053-.024Zm5.2-.077,7.169,3.572a25.664,25.664,0,0,1-2.814,10.779,150.693,150.693,0,0,1-24.426,6.706c8.512-.414,19.152-1.756,29.161-5.355a24.848,24.848,0,0,0,1.96-14.128l-6.775-2.6-4.276,1.023Zm-2.624-6.411a13.234,13.234,0,0,1,1.371-7.346l3.426-1.568c-.9,1.415-2.624,4.762-1.362,8.068l-3.435.846Zm16.355,20.741c.812,1.09,3.835,3.676,13.967,2.9,0,0-2.674,3.047-1.959,6.2a4.277,4.277,0,0,0,3.628,3.408,14.764,14.764,0,0,1-6.871,2.255,12.866,12.866,0,0,0,9.163-2.143c4.192-2.651,4.015-7.732,3.778-9.647a24.3,24.3,0,0,1-6.948-1.582,31.214,31.214,0,0,1-14.719-1.527c-.012.044-.025.088-.039.132Zm2.647,12.608c-.874.071-2.047.15-3.433.207a9.1,9.1,0,0,0,2.352,1.686,12.542,12.542,0,0,0,4.59.862l-3.51-2.755Zm-6.9.291a26.439,26.439,0,0,0,6.02,4.228c2.849,1.162,6.515-.151,6.515-.151a19.366,19.366,0,0,0,11.164-2.034c5.051-2.472,5.787-9.547,5.891-11.927,4.825-.277,10.639-1.886,17.27-6.047a126.6,126.6,0,0,0-3.769-29.46l-4.872-2.436-18.476,4.42c-1.183-4.933-2.361-8.693-2.858-10.208l9.868-4.514c.758.77,1.506,1.448,1.506,1.448s4.484-2.846,3.849-6.043a127.7,127.7,0,0,0-10.443-8.268c-.225.091-.65.288-1.245.573-15.353-21.864-47.908-23.775-69.446-7.949-27.808,20.434-24.747,52.934.007,76.682,4.439,1.821,17.393.555,29.315-1.417,5.719,2.59,13.68,3.139,19.705,3.105Zm-16.382-3.677c2.236-.4,4.4-.819,6.428-1.237a76.411,76.411,0,0,0,18.285.315,2.224,2.224,0,0,1-.267,2.53,74.118,74.118,0,0,1-24.446-1.608Zm21.9-16.714,3.109,6.3a27.054,27.054,0,0,1-3.821-.983,38.177,38.177,0,0,0,.712-5.314Zm-34.481-5.045a114.874,114.874,0,0,1,2.156-20.511c14.184-7.571,32.48-17.065,42.092-21.921-14.353-20.3-43.409-20.261-62.077-6.664-19.975,14.545-19.9,37.873-8.264,56.653-13.274-26.891,1.158-58.506,33.214-61.917-15.007,6.617-19.164,22.46-8.493,31.172-1.541,9.021.219,18.463,1.372,23.188Zm48.279-15.678c3.006-.7,15.795-3.671,18.62-4.211a8.48,8.48,0,0,1,2.249,1.418s4.671,19.674,3.464,26.671c0,0-13.991,7.626-26.645,2.326,0,0-6.448-7.732-13.158-17.137-6.207,1.528-12.252,2.92-17.208,3.876a5.239,5.239,0,0,1-1.179-2.527l44.143-10.532s1.634-.423,2.049-1.578l-11.8,2-.531-.3Zm-21.19-3.92c.721,1.074,2.7,4.009,5.169,7.609l-2.8.687c-1.6-2.381-3.162-4.827-4.615-7.27l2.244-1.026Zm24.508,10.1s3.861,7.75,7.345,12.129c0,0,2.891,1.245,3.6,1.448l.226,2.429a23.452,23.452,0,0,1-5.264-2.2c-1.778-2.962-6.729-11.482-5.909-13.806Zm-16.087,2.212c8.2-2.056,16.446-4.272,22.61-5.966,4.91,11.036,6.081,19.079,6.358,22.154a25.588,25.588,0,0,1-17.063-.738s-7.306-8.856-11.9-15.45Zm31.571,15.331c-1.16-9.392-4.8-19.568-5.772-22.178,2.625-.728,4.65-1.3,5.819-1.631.552,2.215,3.355,13.857,3.4,22.24a24.8,24.8,0,0,1-3.45,1.569Zm-63-12.91c1.319.876,3.3.1,3.3.1l.456-2.471c.957.594,1.039.939,1.039.939l5.956-.7a3.638,3.638,0,0,0,.109-2.331,29.777,29.777,0,0,0-6.081-.227l-.089.573a4.6,4.6,0,0,1-4.609.755c-.049,1.189-.073,2.322-.082,3.354Zm5.052-6.4.291-1.855s2.4-1.594,4.044-.222l.271,2.063-4.606.014Zm-4.882,1.276c1.389.93,3.274-.161,3.274-.161l.232-3.412a1.5,1.5,0,0,1-1.552-1.5l8.814-1.015,39.27-18.323c-.019-.035-.038-.071-.052-.1a5.62,5.62,0,0,1-.487-1.955l3.188,2.428a2.212,2.212,0,0,0,.867-1.866,49.913,49.913,0,0,0-7.233-6.056c-16.443,8.074-44.936,22.1-44.936,22.1a53.392,53.392,0,0,0-1.385,9.855Zm48.669-26.983c.121.095-38.855,19.046-38.855,19.046l.268.566c-2.581.065-7.123.369-7.123.369l.253-1.579,41.579-20.1a3.608,3.608,0,0,0,1.406-1.74,3.539,3.539,0,0,1,.187,1.372Z" transform="translate(-259.762 -172.487)"/><path class="a" d="M472.236,272.191s1.8,5.069,1.605,6.742a8.957,8.957,0,0,1-3.587-3.832C469.349,272.765,472.151,272.428,472.236,272.191Z" transform="translate(-389.665 -234.071)"/></g><path class="g" d="M252.735,94.286l-33.6,97.626,19-5.543-9.983,94.622,43.684-121.2-20.173,6.773Z" transform="translate(-111.638)"/><path class="h" d="M248.055,208.684l-18.662,5.444,26.082-75.788-.781,59.965,18.884-6.157-33.62,93.281Z" transform="translate(-117.973 -27.211)"/><path class="h" d="M248.055,208.684l-18.662,5.444,26.082-75.788-.781,59.965,18.884-6.157-33.62,93.281Z" transform="translate(-117.973 -27.211)"/><path class="i" d="M254.518,224.421,236.6,229.649l21.313-61.93-.582,51.538,17.61-5.549L247.664,289.38Z" transform="translate(-122.422 -45.357)"/><path class="j" d="M249.314,226.513l8.473-57.864L236.6,230.223Z" transform="translate(-122.422 -45.931)"/><path class="h" d="M268.389,170.885" transform="translate(-142.059 -47.313)"/></g></svg>